<svg xmlns="http://www.w3.org/2000/svg" ><defs><radialGradient id="A" cx="399.609" cy="498.065" fx="399.609" fy="498.065" r="74.188" gradientUnits="userSpaceOnUse"><stop offset="0" stop-color="#fbffff"/><stop offset="1" stop-color="#fbffff" stop-opacity="0"/></radialGradient></defs><g stroke="#000" stroke-linejoin="round"><path d="M253.056 99.574c0 27.063-21.939 49.001-49.001 49.001s-49.001-21.939-49.001-49.001 21.939-49.001 49.001-49.001 49.001 21.939 49.001 49.001z" stroke-width="2.715"/><path d="M204.32.679l-3.012.042C90.285 2.334.679 92.916.679 204.32c0 111.532 89.812 202.189 201.011 203.599-54.993-1.395-99.19-46.451-99.19-101.778 0-56.205 45.616-101.821 101.821-101.821S306.141 158.705 306.141 102.5 260.525.679 204.32.679zm0 67.881c18.735 0 33.94 15.205 33.94 33.94s-15.205 33.94-33.94 33.94-33.94-15.205-33.94-33.94 15.205-33.94 33.94-33.94z" fill="#fff" stroke-width="1.358"/><path d="M 471.79688 498.06531 A 72.1875 72.1875 0 1 1  327.42188,498.06531 A 72.1875 72.1875 0 1 1  471.79688 498.06531 z" transform="matrix(.678805 0 0 .678805 -64.576289 -32.010189)" fill="url(#A)" stroke-width="4"/><path d="M204.32 407.919l3.012-.042c111.023-1.612 200.629-92.195 200.629-203.599C407.962 92.746 318.15 2.089 206.951.679c54.993 1.395 99.19 46.451 99.19 101.778 0 56.205-45.616 101.821-101.821 101.821S102.5 249.894 102.5 306.099s45.616 101.821 101.821 101.821zm0-67.88c-18.735 0-33.94-15.205-33.94-33.94s15.205-33.94 33.94-33.94 33.94 15.205 33.94 33.94-15.205 33.94-33.94 33.94z" stroke-width="1.358"/></g></svg>
